<svg width="1024" height="1024" xmlns="http://www.w3.org/2000/svg" version="1.1" class="icon">

 <g>
  <title>Layer 1</title>
  <path transform="rotate(179.958 512.091 512)" id="svg_1" d="m690.98631,655.16789l-157.888,157.888c-2.816,3.584 -6.464,6.4 -10.816,8c-0.32,0.064 -0.513,0.128 -0.704,0.128c-2.56,1.152 -5.376,1.537 -8.192,1.664c-0.385,0 -0.832,0.32 -1.216,0.32c-0.768,0 -1.409,-0.512 -2.176,-0.512c-1.664,-0.128 -3.328,-0.512 -4.992,-1.088c-1.984,-0.512 -3.776,-1.344 -5.568,-2.24c-1.088,-0.576 -2.112,-1.344 -3.136,-2.112c-0.896,-0.704 -2.048,-1.024 -2.88,-1.983l-160.128,-160.064c-10.368,-10.304 -10.368,-27.072 0,-37.248c10.24,-10.304 27.009,-10.304 37.376,0l115.2,115.136l0,-256.767c0,-14.721 11.968,-26.816 26.688,-26.816s26.688,12.032 26.688,26.816l0,255.936l114.433,-114.304c10.176,-10.305 27.009,-10.304 37.313,0c10.24,10.176 10.24,26.944 0,37.248l-0.002,-0.002zm-178.624,-276.608c-14.721,0 -26.688,-11.968 -26.688,-26.688c0,-14.655 11.903,-26.624 26.688,-26.624c14.784,0 26.688,11.968 26.688,26.624c0.064,14.784 -11.904,26.688 -26.688,26.688zm0,-124.416c-14.721,0 -26.688,-11.904 -26.688,-26.688c0,-14.655 11.903,-26.624 26.688,-26.624c14.784,0 26.688,11.968 26.688,26.624c0.064,14.784 -11.904,26.688 -26.688,26.688z" fill="#ff2323"/>
 </g>
</svg>